<?xml version="1.0" standalone="no"?>
<!DOCTYPE svg PUBLIC "-//W3C//DTD SVG 20010904//EN"
 "http://www.w3.org/TR/2001/REC-SVG-20010904/DTD/svg10.dtd">
<svg version="1.0" xmlns="http://www.w3.org/2000/svg"
 width="700.000000pt" height="700.000000pt" viewBox="0 0 700.000000 700.000000"
 preserveAspectRatio="xMidYMid meet">
<metadata>
Created by potrace 1.15, written by Peter Selinger 2001-2017
</metadata>
<g transform="translate(0.000000,1280.000000) scale(0.100000,-0.100000)"
fill="#000000" stroke="none">
<path d="M2960 11351 c-16 -4 -25 -14 -25 -26 0 -14 -7 -19 -22 -18 -39 4 -92
-26 -120 -69 -41 -60 -62 -101 -63 -120 0 -9 -13 -26 -29 -37 -20 -15 -28 -27
-24 -40 3 -13 -2 -23 -17 -31 -15 -8 -20 -18 -17 -31 4 -13 -2 -25 -17 -34
-13 -9 -28 -26 -34 -40 -6 -13 -31 -48 -55 -78 -57 -70 -91 -172 -91 -276 0
-93 12 -160 32 -183 11 -13 12 -21 4 -31 -7 -8 -7 -18 -2 -27 6 -8 10 -27 10
-41 0 -32 27 -99 39 -99 12 0 34 -57 61 -157 22 -83 50 -120 83 -107 32 12 66
-14 80 -61 9 -31 21 -50 37 -58 15 -8 27 -24 30 -42 4 -24 10 -30 30 -29 14 1
32 4 41 8 22 10 47 -37 30 -57 -6 -8 -9 -22 -5 -31 4 -12 2 -15 -9 -11 -21 9
-37 -43 -28 -92 10 -51 18 -63 43 -63 15 0 19 -5 15 -20 -4 -15 0 -20 14 -20
11 0 34 -7 50 -16 28 -14 33 -14 74 6 27 13 59 20 80 19 27 -3 39 2 51 19 8
12 20 22 25 22 16 0 48 42 49 63 0 11 12 22 30 28 35 13 41 44 9 54 -16 5 -27
-1 -48 -26 -22 -25 -32 -31 -52 -26 -20 5 -24 13 -26 48 -1 26 5 48 13 57 8 8
18 27 21 43 3 16 10 29 15 29 6 0 7 -11 4 -25 -5 -20 -3 -25 13 -25 23 0 94
79 87 97 -8 19 4 43 20 43 7 0 19 10 25 23 6 12 23 34 36 49 23 24 24 30 15
58 -13 37 -5 90 14 90 18 0 18 10 -1 24 -12 9 -13 20 -4 66 10 56 31 257 48
474 8 96 7 123 -4 140 -8 12 -19 59 -25 106 -6 47 -21 110 -32 140 -11 30 -26
75 -34 98 -19 62 -73 152 -90 152 -8 0 -42 13 -77 29 -85 39 -126 51 -175 51
-22 0 -44 5 -47 10 -7 11 -18 11 -55 1z m170 -1716 c9 -5 -1 -75 -10 -75 -4 0
-10 9 -13 20 -4 15 -14 20 -36 20 -17 0 -31 5 -31 10 0 6 -7 10 -15 10 -16 0
-20 12 -7 24 6 7 98 0 112 -9z m50 -83 c0 -5 -7 -17 -16 -28 -8 -10 -14 -14
-11 -9 2 6 7 18 10 28 7 17 17 23 17 9z"/>
<path d="M4097 11183 c-4 -3 -7 -15 -7 -25 0 -10 -7 -18 -17 -18 -36 -1 -63
-27 -148 -140 -48 -63 -98 -127 -111 -141 -13 -14 -22 -28 -19 -30 2 -3 -7
-36 -21 -75 -15 -38 -29 -85 -33 -104 -10 -45 -59 -186 -78 -223 -47 -91 -74
-349 -52 -486 6 -36 12 -83 14 -105 2 -21 10 -46 18 -55 8 -9 20 -40 27 -69 7
-33 19 -56 31 -63 11 -5 27 -28 35 -49 17 -42 27 -48 140 -73 56 -13 63 -12
84 5 12 10 28 18 36 18 22 0 129 58 150 81 10 11 32 28 47 36 49 25 236 176
243 195 3 10 12 18 20 18 8 0 14 7 14 15 0 8 5 15 10 15 6 0 10 7 10 15 0 8 9
19 20 25 15 8 19 17 15 31 -5 14 0 22 17 30 33 14 60 91 60 167 0 12 4 22 9
22 12 0 11 37 -2 61 -8 15 -7 26 4 42 8 13 14 47 14 80 0 46 -4 60 -18 68 -23
12 -25 57 -3 66 12 4 11 8 -8 17 -15 8 -22 19 -20 33 2 12 -4 23 -15 27 -15 6
-15 8 7 19 35 18 35 33 0 47 -28 12 -33 11 -55 -10 -29 -27 -32 -15 -10 37 8
19 15 44 15 54 0 11 5 19 10 19 6 0 19 14 30 32 17 28 17 34 5 48 -20 22 -55
101 -55 125 0 24 -56 95 -75 95 -7 0 -27 18 -44 39 -23 28 -37 38 -51 34 -13
-3 -29 5 -48 27 -25 27 -33 30 -50 21 -13 -7 -38 -7 -78 -1 -33 6 -59 10 -60
10 0 0 -4 -3 -7 -7z m-152 -333 c3 -5 1 -10 -4 -10 -6 0 -11 5 -11 10 0 6 2
10 4 10 3 0 8 -4 11 -10z m53 -60 c-7 -10 -14 -18 -15 -16 -6 6 9 36 18 36 5
0 4 -9 -3 -20z"/>
<path d="M3622 10532 c-24 -19 -21 -32 8 -32 16 0 50 29 50 43 0 13 -35 6 -58
-11z"/>
<path d="M3635 10470 c-3 -5 -1 -10 4 -10 6 0 11 5 11 10 0 6 -2 10 -4 10 -3
0 -8 -4 -11 -10z"/>
<path d="M2020 10201 c0 -5 7 -12 16 -15 14 -5 14 -9 3 -22 -11 -14 -10 -19
11 -36 19 -15 22 -23 13 -36 -14 -24 -64 -28 -79 -7 -12 15 -14 15 -38 0 -14
-10 -26 -24 -26 -31 0 -8 -6 -14 -13 -14 -7 0 -29 -17 -49 -37 -37 -39 -43
-68 -22 -117 6 -15 -1 -27 -31 -53 -39 -34 -39 -34 -15 -41 25 -6 25 -6 -5
-13 -26 -6 -23 -7 18 -8 56 -1 61 -17 17 -49 -33 -24 -39 -42 -15 -42 8 0 15
-6 15 -13 0 -7 12 -12 28 -12 45 0 38 -18 -23 -54 -55 -32 -57 -34 -36 -45 12
-7 18 -15 15 -19 -4 -4 -2 -7 4 -7 7 0 12 5 12 10 0 6 5 10 10 10 6 0 10 -7
10 -15 0 -8 6 -15 13 -15 8 0 7 -3 -3 -10 -9 -6 -19 -5 -29 3 -9 7 -7 0 5 -18
18 -28 18 -29 0 -22 -13 5 -17 3 -13 -7 3 -8 -2 -16 -14 -19 -23 -6 -55 30
-64 73 -4 17 -11 30 -16 30 -6 0 -7 -4 -4 -10 3 -5 1 -10 -4 -10 -20 0 -11
-31 19 -63 16 -18 30 -35 30 -39 0 -15 -21 -18 -41 -7 -17 9 -23 8 -30 -2 -8
-12 -10 -12 -18 0 -6 9 -14 11 -26 4 -16 -9 -14 -12 14 -29 18 -11 31 -27 31
-38 0 -16 3 -17 12 -8 7 7 19 12 27 11 11 0 12 -2 3 -6 -6 -2 -10 -9 -6 -14 3
-5 -2 -9 -12 -9 -12 0 -15 -6 -11 -21 3 -13 1 -19 -6 -16 -7 2 -11 12 -11 21
1 9 -4 16 -10 16 -8 0 -11 -13 -8 -36 3 -26 7 -32 13 -23 8 11 15 7 34 -16 14
-16 23 -35 21 -42 -3 -6 2 -17 10 -24 12 -10 17 -9 27 1 8 9 8 11 1 7 -16 -9
-22 12 -13 48 l7 30 1 -31 c0 -18 7 -34 16 -38 18 -7 20 -46 3 -47 -7 -1 -21
-1 -30 0 -14 2 -18 -5 -18 -29 0 -21 -4 -30 -12 -27 -7 2 -14 9 -14 15 -1 7
-2 17 -3 22 -2 16 -21 12 -21 -4 0 -9 -7 -13 -20 -11 -37 7 -31 -16 19 -65 28
-29 52 -46 56 -40 14 23 24 -3 18 -51 -5 -42 -3 -49 10 -44 8 4 18 2 22 -4 3
-7 -2 -11 -14 -11 -11 0 -23 -4 -26 -10 -9 -14 29 -12 43 2 20 20 44 18 64 -8
23 -29 72 -33 84 -6 4 9 6 20 6 25 -1 4 3 7 8 7 15 0 12 19 -6 38 -15 15 -16
14 -9 -7 6 -20 4 -23 -10 -18 -9 4 -21 7 -27 7 -5 0 -8 10 -6 23 2 14 9 22 20
21 10 -1 17 1 16 5 -2 22 3 41 11 36 5 -3 13 0 16 6 4 5 14 8 22 5 9 -4 13 -1
10 6 -2 7 -12 12 -21 12 -13 -2 -14 1 -6 11 8 9 8 15 0 20 -5 3 -10 3 -10 -1
0 -3 -6 -1 -14 5 -10 9 -16 9 -21 1 -5 -8 -11 -8 -21 1 -7 6 -21 9 -29 5 -13
-5 -14 -2 -4 16 9 17 9 23 0 26 -11 4 -16 42 -5 42 4 0 22 -13 41 -30 35 -31
68 -39 76 -17 3 6 3 -3 0 -20 -3 -21 -1 -33 6 -33 6 0 10 -5 8 -12 -1 -6 5
-13 14 -15 13 -3 16 5 17 39 0 61 0 62 17 48 9 -7 15 -8 15 -2 0 5 18 12 41
14 37 3 41 1 56 -30 12 -25 18 -30 25 -20 6 8 7 0 3 -24 -7 -43 9 -68 38 -60
16 4 18 1 13 -16 -10 -29 12 -38 35 -13 20 22 26 51 9 51 -15 0 -12 36 5 50 8
6 14 19 13 28 -3 37 3 52 19 52 14 0 14 3 5 12 -10 10 -15 10 -22 -2 -5 -8
-12 -11 -16 -7 -11 10 16 37 37 37 11 0 19 -7 20 -17 0 -14 2 -13 9 5 6 14 6
32 -1 49 -12 33 2 53 25 34 18 -15 37 -6 30 13 -3 8 -1 17 5 21 6 3 11 -1 11
-9 0 -16 26 -46 41 -46 5 0 9 25 9 56 0 41 -5 63 -20 81 -27 34 -25 45 5 37
19 -5 25 -2 25 10 0 20 -32 35 -38 18 -2 -7 -10 -12 -18 -12 -10 0 -13 -7 -8
-25 4 -16 2 -25 -6 -25 -6 0 -9 -3 -6 -8 2 -4 -7 -12 -20 -19 -19 -9 -24 -8
-24 3 0 8 4 14 9 14 5 0 11 15 15 33 6 27 2 36 -19 55 -15 12 -30 20 -35 17
-10 -6 -14 6 -30 90 -7 33 -15 67 -18 75 -3 8 -7 25 -8 37 -2 13 -17 51 -34
85 -17 35 -37 74 -44 88 -9 19 -10 31 -2 43 9 15 7 21 -9 33 -11 9 -19 18 -19
22 1 4 4 19 8 35 7 30 -9 37 -28 12 -10 -14 -16 -11 -45 19 -28 29 -30 34 -12
29 12 -3 21 -1 21 6 0 6 -5 11 -11 11 -6 0 -9 9 -6 20 3 13 -3 24 -19 35 -27
17 -32 35 -9 35 26 0 16 18 -15 29 -16 5 -30 6 -30 2z"/>
<path d="M2120 10201 c0 -5 5 -13 10 -16 6 -3 10 -2 10 4 0 5 -4 13 -10 16 -5
3 -10 2 -10 -4z"/>
<path d="M2160 10181 c0 -4 11 -25 25 -45 28 -41 31 -56 14 -73 -8 -8 -8 -16
0 -30 10 -17 10 -17 11 3 0 12 7 27 15 34 22 18 19 37 -12 81 -26 35 -53 51
-53 30z"/>
<path d="M2112 10139 c5 -14 68 -53 68 -42 0 7 -26 28 -54 44 -14 8 -17 8 -14
-2z"/>
<path d="M2110 10096 c0 -2 7 -9 15 -16 12 -10 15 -10 15 4 0 9 -7 16 -15 16
-8 0 -15 -2 -15 -4z"/>
<path d="M2231 10033 c0 -25 1 -26 9 -8 12 27 12 35 0 35 -5 0 -10 -12 -9 -27z"/>
<path d="M3530 10010 c0 -5 5 -10 10 -10 6 0 10 5 10 10 0 6 -4 10 -10 10 -5
0 -10 -4 -10 -10z"/>
<path d="M2260 9990 c0 -5 5 -10 11 -10 5 0 7 5 4 10 -3 6 -8 10 -11 10 -2 0
-4 -4 -4 -10z"/>
<path d="M1778 9963 c7 -3 16 -2 19 1 4 3 -2 6 -13 5 -11 0 -14 -3 -6 -6z"/>
<path d="M2240 9940 c0 -5 5 -10 11 -10 5 0 7 5 4 10 -3 6 -8 10 -11 10 -2 0
-4 -4 -4 -10z"/>
<path d="M2270 9940 c0 -5 5 -10 11 -10 5 0 7 5 4 10 -3 6 -8 10 -11 10 -2 0
-4 -4 -4 -10z"/>
<path d="M3477 9923 c-10 -9 -9 -23 2 -23 5 0 11 7 15 15 5 15 -5 20 -17 8z"/>
<path d="M2290 9887 c0 -7 7 -22 16 -33 14 -17 15 -17 10 -1 -3 10 -6 25 -6
33 0 8 -4 14 -10 14 -5 0 -10 -6 -10 -13z"/>
<path d="M1380 9864 c0 -8 5 -12 10 -9 6 4 8 11 5 16 -9 14 -15 11 -15 -7z"/>
<path d="M2220 9871 c0 -6 5 -13 10 -16 6 -3 10 1 10 9 0 9 -4 16 -10 16 -5 0
-10 -4 -10 -9z"/>
<path d="M1770 9855 c-10 -12 -10 -15 4 -15 9 0 16 7 16 15 0 8 -2 15 -4 15
-2 0 -9 -7 -16 -15z"/>
<path d="M2260 9835 c-18 -21 -3 -32 16 -13 10 9 12 18 6 22 -5 3 -15 -1 -22
-9z"/>
<path d="M1501 9794 c0 -11 3 -14 6 -6 3 7 2 16 -1 19 -3 4 -6 -2 -5 -13z"/>
<path d="M1727 9776 c-6 -16 2 -28 14 -20 12 7 11 34 0 34 -5 0 -11 -6 -14
-14z"/>
<path d="M1330 9770 c-13 -8 -12 -10 3 -10 9 0 17 5 17 10 0 12 -1 12 -20 0z"/>
<path d="M2286 9771 c-3 -5 5 -16 19 -25 21 -14 25 -14 25 -2 0 18 -36 40 -44
27z"/>
<path d="M4355 9770 c-3 -5 -1 -10 4 -10 6 0 11 5 11 10 0 6 -2 10 -4 10 -3 0
-8 -4 -11 -10z"/>
<path d="M1748 9723 c-10 -11 -18 -24 -18 -30 0 -6 -7 -13 -15 -17 -16 -6 -21
-26 -6 -26 21 0 62 49 59 71 -3 21 -3 21 -20 2z"/>
<path d="M2410 9668 c0 -7 4 -19 8 -26 11 -17 45 -4 38 15 -3 8 -6 17 -6 19 0
2 -9 4 -20 4 -11 0 -20 -6 -20 -12z"/>
<path d="M1765 9660 c3 -5 10 -10 16 -10 5 0 9 5 9 10 0 6 -7 10 -16 10 -8 0
-12 -4 -9 -10z"/>
<path d="M2355 9640 c-3 -5 1 -10 9 -10 9 0 16 5 16 10 0 6 -4 10 -9 10 -6 0
-13 -4 -16 -10z"/>
<path d="M1640 9630 c0 -5 5 -10 10 -10 6 0 10 5 10 10 0 6 -4 10 -10 10 -5 0
-10 -4 -10 -10z"/>
<path d="M1710 9630 c0 -5 5 -10 10 -10 6 0 10 5 10 10 0 6 -4 10 -10 10 -5 0
-10 -4 -10 -10z"/>
<path d="M4950 9629 c-25 -5 -52 -6 -61 -4 -9 3 -28 0 -43 -6 -19 -9 -29 -9
-40 0 -11 9 -18 6 -35 -15 -12 -15 -21 -30 -21 -34 0 -4 -13 -10 -28 -13 -20
-4 -47 -28 -85 -74 -30 -37 -65 -78 -76 -91 -12 -12 -21 -30 -21 -38 0 -11 -6
-13 -21 -9 -14 5 -19 3 -15 -3 5 -8 -42 -32 -63 -32 -13 0 -32 69 -25 94 4 19
2 26 -9 26 -8 0 -18 -7 -21 -16 -4 -10 -12 -14 -22 -10 -12 4 -14 1 -9 -14 5
-15 0 -23 -19 -31 -14 -7 -28 -20 -31 -31 -4 -11 -16 -18 -31 -18 -15 0 -24
-6 -24 -15 0 -8 -7 -15 -15 -15 -20 0 -19 10 5 40 25 32 25 44 0 37 -23 -6
-27 12 -7 32 10 11 10 14 0 18 -18 6 -16 23 2 23 8 0 15 7 15 15 0 8 -5 15
-11 15 -15 0 -69 -62 -63 -72 3 -4 0 -8 -5 -8 -6 0 -11 -6 -11 -13 0 -23 -76
-51 -130 -48 -27 1 -51 -3 -55 -9 -11 -17 3 -24 20 -10 12 10 16 9 21 -4 8
-20 27 -20 64 -1 17 9 30 11 30 6 0 -16 -24 -29 -65 -36 -52 -8 -95 -25 -95
-36 0 -13 23 -11 63 6 49 20 80 19 102 -5 16 -17 16 -20 2 -20 -9 0 -19 5 -23
11 -5 8 -9 8 -14 -1 -4 -6 -31 -13 -59 -14 -30 -1 -58 -9 -67 -17 -9 -10 -26
-14 -44 -11 -30 4 -38 16 -20 27 15 9 2 25 -21 25 -14 0 -19 -7 -19 -25 0 -13
-8 -28 -17 -34 -15 -8 -16 -12 -5 -23 9 -9 19 -10 40 -2 15 6 37 7 47 4 12 -5
26 -2 36 6 14 12 20 12 43 0 30 -15 28 -18 -26 -35 -60 -20 -40 -46 25 -35 32
6 32 6 10 -10 -13 -10 -23 -21 -23 -27 0 -15 86 -11 100 6 7 8 22 15 34 15 20
-1 19 -2 -7 -26 -16 -14 -36 -22 -45 -20 -27 9 -38 -6 -38 -46 0 -30 4 -38 18
-38 10 0 18 7 18 15 0 8 6 15 13 15 8 0 12 -17 12 -55 -1 -49 1 -54 17 -49 12
3 18 0 18 -10 0 -9 7 -16 16 -16 13 0 11 -6 -7 -31 l-22 -31 22 7 c18 5 21 2
21 -22 0 -16 -5 -34 -11 -40 -10 -10 -20 -93 -12 -93 2 0 17 7 33 15 17 9 30
11 30 6 0 -11 -29 -35 -44 -36 -22 -2 -46 -17 -40 -26 3 -5 10 -7 15 -3 6 3
10 0 8 -7 -3 -27 1 -38 19 -48 14 -8 18 -5 19 11 3 28 10 33 27 19 11 -9 13
-22 9 -44 -6 -30 -5 -31 13 -17 10 8 22 19 26 25 4 5 10 6 14 3 3 -4 -1 -14
-10 -23 -9 -9 -16 -23 -16 -31 0 -23 26 -16 44 11 15 22 45 38 32 16 -7 -10
19 -23 28 -14 14 14 4 54 -19 79 -14 15 -25 23 -25 18 0 -5 -4 -15 -9 -22 -6
-11 -13 -9 -32 10 -26 27 -39 66 -18 52 23 -14 103 -22 116 -12 7 5 14 5 17
-1 4 -6 14 -7 23 -4 11 5 14 3 9 -6 -5 -8 -18 -10 -33 -6 -22 5 -24 3 -21 -22
2 -23 8 -28 31 -28 29 0 47 -18 47 -49 0 -15 -3 -16 -15 -6 -12 10 -17 7 -26
-14 -10 -20 -15 -23 -26 -15 -9 8 -13 8 -13 1 0 -6 -6 -9 -14 -6 -9 4 -18 -6
-27 -30 -7 -20 -17 -36 -21 -36 -5 0 -4 -9 2 -20 6 -10 9 -25 8 -32 -2 -7 7
-14 19 -16 12 -2 27 -10 33 -18 17 -19 30 -18 30 4 0 14 4 12 20 -8 19 -25 19
-25 -2 -47 -21 -22 -21 -23 -3 -43 10 -11 26 -20 34 -19 9 1 31 -2 49 -6 31
-7 32 -9 32 -56 0 -32 4 -49 13 -50 6 -1 30 -2 52 -3 37 -1 39 -3 41 -33 1
-18 -2 -30 -7 -27 -5 3 -9 -2 -9 -10 0 -19 20 -31 46 -28 15 2 23 -4 27 -17 4
-16 13 -21 41 -21 20 0 36 5 36 10 0 6 8 10 18 11 13 0 12 2 -5 9 -15 6 -23
18 -23 34 0 14 -9 41 -21 60 l-21 36 21 0 c24 0 27 10 9 29 -7 6 -13 15 -13
19 0 24 -50 84 -84 102 -23 11 -41 25 -41 30 0 6 -5 10 -11 10 -6 0 -8 -8 -4
-19 3 -11 0 -21 -9 -24 -21 -8 -56 21 -56 46 0 12 -9 36 -20 52 -27 40 -25 50
9 52 19 1 36 -6 51 -23 13 -13 29 -24 37 -24 7 0 13 -6 13 -14 0 -21 56 -41
75 -26 15 13 35 6 35 -13 0 -7 16 -17 35 -23 37 -12 48 -1 16 16 -11 5 -21 22
-23 37 -2 20 -8 28 -20 27 -10 -1 -18 0 -18 3 0 12 32 64 37 59 4 -3 11 -2 17
2 6 5 22 6 36 2 23 -6 22 -7 -12 -14 -24 -4 -38 -13 -38 -22 0 -19 28 -30 43
-15 18 18 24 13 31 -24 7 -34 26 -49 26 -20 0 8 4 15 9 15 5 0 8 20 7 44 -1
30 -5 42 -14 39 -8 -4 -10 0 -6 11 3 9 12 16 20 16 17 0 18 12 2 28 -9 9 -6
12 14 12 15 0 30 5 33 10 10 16 28 12 21 -5 -6 -16 10 -20 38 -9 12 5 13 11 5
27 -9 19 -8 19 11 -2 12 -14 19 -33 17 -43 -3 -11 2 -22 14 -28 11 -6 16 -17
13 -28 -5 -15 -4 -15 6 1 9 15 8 22 -6 38 -17 18 -16 19 16 19 34 0 35 4 15
53 -5 13 -2 17 13 17 12 0 24 -4 27 -10 8 -13 45 -13 45 1 0 5 -4 7 -10 4 -5
-3 -15 -3 -21 1 -7 4 -1 12 17 20 26 11 27 12 7 13 -18 1 -22 6 -21 27 2 25 5
26 45 21 40 -4 42 -3 37 18 -4 15 0 24 10 28 12 5 16 0 16 -22 0 -36 37 -73
50 -51 6 8 10 25 10 38 0 12 5 22 11 22 5 0 7 5 4 10 -3 6 5 14 19 20 31 11
34 30 6 37 -11 3 -20 9 -20 13 0 10 47 30 71 30 38 0 76 68 49 85 -6 4 -8 11
-4 16 3 5 10 7 15 4 5 -4 19 -3 30 0 17 6 20 12 15 38 -4 17 -11 34 -17 38
-17 10 0 49 22 49 10 0 19 6 19 14 0 8 6 17 13 20 9 5 9 7 -1 12 -7 3 -19 13
-28 21 -8 8 -18 13 -21 9 -3 -3 -12 -1 -20 5 -7 7 -26 9 -43 5 -17 -3 -30 -1
-30 4 0 10 16 15 71 24 21 4 43 14 50 22 11 13 10 19 -8 32 -11 10 -23 25 -26
35 -4 9 -13 17 -22 17 -8 0 -15 4 -15 9 0 5 17 7 39 4 l38 -5 1 60 c1 52 -2
62 -18 67 -11 3 -29 19 -40 35 l-20 29 20 6 c17 6 18 8 6 21 -8 8 -19 14 -25
14 -6 0 -11 8 -11 19 0 26 -27 48 -42 33 -17 -17 -28 -15 -28 6 0 27 -56 58
-160 88 -52 16 -96 32 -98 36 -5 10 -63 9 -122 -3z m-117 -139 c-3 -11 -10
-20 -17 -20 -6 0 0 -9 13 -19 36 -28 23 -43 -21 -22 l-38 17 30 32 c34 37 40
40 33 12z m77 -81 c0 -6 -4 -7 -10 -4 -5 3 -10 11 -10 16 0 6 5 7 10 4 6 -3
10 -11 10 -16z m-70 -169 c0 -5 -4 -10 -10 -10 -5 0 -10 5 -10 10 0 6 5 10 10
10 6 0 10 -4 10 -10z m-678 -60 c-3 -24 -9 -30 -29 -30 -13 0 -31 7 -40 15
-14 14 -13 15 12 9 20 -5 26 -4 21 5 -4 7 2 15 16 20 13 6 23 10 24 10 0 1 -1
-12 -4 -29z m628 -370 c0 -5 -4 -10 -10 -10 -5 0 -10 5 -10 10 0 6 5 10 10 10
6 0 10 -4 10 -10z"/>
<path d="M1340 9620 c0 -5 5 -10 11 -10 5 0 7 5 4 10 -3 6 -8 10 -11 10 -2 0
-4 -4 -4 -10z"/>
<path d="M1763 9615 c-13 -5 -23 -16 -23 -23 0 -9 7 -11 23 -6 28 8 29 10 25
26 -2 10 -9 10 -25 3z"/>
<path d="M2383 9583 c-26 -5 -29 -13 -11 -31 9 -9 14 -7 25 6 12 16 14 16 27
0 7 -10 20 -18 29 -18 16 0 30 26 21 41 -5 9 -50 10 -91 2z"/>
<path d="M2340 9556 c0 -9 5 -16 10 -16 6 0 10 4 10 9 0 6 -4 13 -10 16 -5 3
-10 -1 -10 -9z"/>
<path d="M2662 9531 c-17 -10 -6 -60 15 -68 19 -8 37 12 27 29 -9 13 -10 18
-13 38 -1 12 -11 13 -29 1z"/>
<path d="M3692 9446 c-24 -42 -32 -68 -32 -106 0 -34 4 -49 11 -45 6 4 8 13 5
20 -5 15 17 38 27 28 13 -12 7 -22 -9 -16 -15 5 -15 3 1 -20 10 -16 22 -24 29
-19 6 4 22 7 36 7 18 0 24 5 22 18 -2 9 3 17 9 17 7 0 10 3 6 6 -12 13 20 32
45 27 14 -3 29 0 32 6 4 6 16 11 26 11 13 0 17 5 14 15 -4 10 0 15 12 15 13 1
9 5 -12 14 -17 8 -34 21 -37 30 -4 11 -16 15 -35 13 -46 -5 -54 -15 -47 -56 5
-33 3 -40 -19 -54 -36 -24 -43 -21 -38 13 3 23 0 30 -12 30 -9 0 -16 6 -16 14
0 17 24 38 33 29 11 -11 7 11 -7 36 -13 23 -13 22 -44 -33z"/>
<path d="M1278 9478 c-36 -13 -35 -23 2 -24 23 -1 30 3 30 17 0 11 -1 19 -2
18 -2 0 -15 -5 -30 -11z"/>
<path d="M4090 9450 c0 -5 5 -10 11 -10 5 0 7 5 4 10 -3 6 -8 10 -11 10 -2 0
-4 -4 -4 -10z"/>
<path d="M1240 9405 c0 -15 18 -40 24 -34 3 3 -1 14 -9 25 -8 10 -14 15 -15 9z"/>
<path d="M1580 9400 c0 -5 5 -10 10 -10 6 0 10 5 10 10 0 6 -4 10 -10 10 -5 0
-10 -4 -10 -10z"/>
<path d="M3945 9380 c3 -5 11 -10 16 -10 6 0 7 5 4 10 -3 6 -11 10 -16 10 -6
0 -7 -4 -4 -10z"/>
<path d="M1295 9330 c-16 -18 -17 -23 -5 -30 11 -7 17 -3 23 12 12 33 3 42
-18 18z"/>
<path d="M1620 9315 c-14 -16 -10 -18 14 -9 9 3 16 10 16 15 0 14 -16 11 -30
-6z"/>
<path d="M1591 9284 c0 -11 3 -14 6 -6 3 7 2 16 -1 19 -3 4 -6 -2 -5 -13z"/>
<path d="M1338 9273 c7 -3 16 -2 19 1 4 3 -2 6 -13 5 -11 0 -14 -3 -6 -6z"/>
<path d="M1648 9265 c-11 -11 14 -56 28 -51 8 3 16 1 19 -4 4 -6 -1 -10 -10
-10 -9 0 -13 -5 -10 -11 4 -6 13 -8 21 -5 8 3 14 1 14 -4 0 -6 4 -10 9 -10 5
0 5 14 -1 33 -6 17 -13 39 -15 47 -4 13 -6 12 -14 -2 -13 -24 -27 -23 -31 3
-2 11 -6 18 -10 14z"/>
<path d="M1445 9240 c-3 -5 1 -10 9 -10 9 0 16 5 16 10 0 6 -4 10 -9 10 -6 0
-13 -4 -16 -10z"/>
<path d="M1327 9233 c-4 -3 -7 -11 -7 -17 0 -6 5 -5 12 2 6 6 9 14 7 17 -3 3
-9 2 -12 -2z"/>
<path d="M2511 9214 c0 -11 3 -14 6 -6 3 7 2 16 -1 19 -3 4 -6 -2 -5 -13z"/>
<path d="M2540 9206 c0 -9 5 -16 10 -16 6 0 10 4 10 9 0 6 -4 13 -10 16 -5 3
-10 -1 -10 -9z"/>
<path d="M3597 9213 c-10 -9 -9 -43 1 -43 12 0 32 23 32 37 0 14 -22 18 -33 6z"/>
<path d="M3691 9180 c-13 -11 -19 -20 -13 -20 10 0 42 27 42 36 0 7 -4 5 -29
-16z"/>
<path d="M1575 9179 c-4 -6 -4 -13 -1 -16 8 -8 36 5 36 17 0 13 -27 13 -35 -1z"/>
<path d="M1890 9134 c0 -11 29 -34 34 -26 2 4 -4 13 -15 20 -10 7 -19 10 -19
6z"/>
<path d="M2050 9105 c0 -8 4 -15 9 -15 5 0 14 7 21 15 10 13 9 15 -9 15 -12 0
-21 -6 -21 -15z"/>
<path d="M2140 9084 c0 -8 5 -12 10 -9 6 4 8 11 5 16 -9 14 -15 11 -15 -7z"/>
<path d="M1520 9064 c0 -11 65 -64 78 -64 12 0 12 3 2 15 -7 8 -18 15 -24 15
-6 0 -17 9 -24 20 -11 18 -32 28 -32 14z"/>
<path d="M2075 9056 c-11 -7 -16 -20 -12 -29 7 -18 -26 -30 -42 -14 -8 8 -11
8 -11 -1 0 -7 5 -12 10 -12 6 0 8 -11 4 -27 -6 -24 -5 -26 17 -20 13 4 27 7
32 7 4 0 7 14 7 32 0 17 7 39 16 49 19 21 3 33 -21 15z"/>
<path d="M1330 9039 c0 -8 9 -20 20 -27 12 -7 18 -17 15 -22 -3 -6 -1 -10 4
-10 6 0 11 12 11 27 0 14 -3 23 -7 20 -3 -4 -15 0 -25 10 -14 13 -18 13 -18 2z"/>
<path d="M3237 9044 c-3 -4 -3 -20 0 -37 4 -21 3 -28 -5 -23 -7 4 -12 14 -12
22 0 11 -8 14 -27 12 -22 -2 -28 -8 -28 -28 -1 -21 -5 -25 -28 -22 -22 2 -27
-1 -27 -20 0 -20 -1 -21 -16 -6 -15 15 -18 14 -35 -3 -10 -10 -19 -27 -19 -36
0 -26 -16 -48 -24 -34 -14 23 -28 11 -22 -19 5 -29 -6 -41 -19 -20 -12 19 -23
10 -36 -27 -9 -25 -14 -32 -17 -20 -7 35 -32 10 -32 -34 0 -15 -5 -18 -24 -13
-28 7 -36 -13 -36 -95 0 -35 -6 -61 -15 -71 -13 -14 -14 -22 -4 -43 9 -21 9
-30 -1 -42 -18 -22 -33 -18 -20 5 6 11 8 35 5 54 -5 25 -3 35 9 39 18 7 22 81
7 106 -10 15 -13 7 -26 -56 -7 -36 -35 -46 -35 -13 0 11 -4 20 -10 20 -16 0
-12 -43 6 -68 16 -23 13 -52 -6 -52 -5 0 -10 14 -10 30 0 21 -5 30 -16 30 -13
0 -15 -7 -9 -37 3 -21 13 -43 21 -49 16 -13 19 -44 4 -44 -5 0 -10 5 -10 10 0
6 -4 10 -10 10 -5 0 -10 -7 -10 -15 0 -18 -26 -20 -33 -2 -4 9 -6 9 -6 -1 -2
-24 20 -54 35 -48 10 4 14 -2 14 -19 0 -29 -7 -31 -31 -9 -24 22 -39 10 -39
-32 0 -21 4 -33 10 -29 6 3 10 -1 10 -9 0 -9 -7 -16 -15 -16 -8 0 -15 -4 -15
-10 0 -5 -5 -10 -11 -10 -7 0 -8 7 -4 18 10 22 13 92 4 92 -4 0 -9 -6 -11 -12
-3 -8 -9 -4 -17 10 -6 12 -18 22 -26 22 -19 0 -19 -14 0 -30 17 -15 20 -66 4
-76 -11 -7 -29 13 -28 31 0 6 3 4 6 -2 7 -19 23 -16 23 5 0 19 -18 42 -32 42
-4 0 -8 -7 -8 -15 0 -10 -7 -15 -17 -13 -13 2 -17 -3 -16 -19 2 -13 -2 -23 -7
-23 -6 0 -10 -13 -10 -30 0 -16 -3 -30 -6 -30 -10 0 -33 27 -28 33 3 3 -4 8
-15 12 -12 3 -21 11 -21 16 0 5 -7 9 -15 9 -10 0 -15 -9 -14 -27 0 -24 2 -25
8 -9 5 14 10 16 15 8 11 -18 -4 -34 -26 -28 -29 7 -51 -19 -44 -49 8 -32 -15
-34 -29 -3 -16 35 -42 34 -50 -1 -5 -24 -12 -31 -30 -31 -17 0 -25 -6 -27 -22
-4 -29 -24 -34 -31 -8 -3 11 -10 20 -17 20 -13 0 -3 -43 11 -48 12 -5 11 -42
-1 -42 -5 0 -10 -9 -10 -20 0 -25 17 -26 23 -2 3 14 6 12 15 -9 10 -25 42 -48
42 -30 0 5 -4 11 -8 13 -12 4 -25 58 -14 58 11 0 30 -56 37 -110 5 -39 4 -42
-7 -26 -7 10 -21 28 -30 40 l-17 21 0 -25 c0 -26 30 -70 48 -70 6 0 11 -7 11
-16 0 -14 -3 -15 -17 -3 -42 31 -75 75 -75 96 0 26 -13 31 -22 7 -11 -27 -6
-54 8 -54 8 0 16 -10 18 -22 2 -13 8 -23 13 -22 6 1 18 -12 28 -28 13 -22 21
-27 30 -19 10 8 13 -3 15 -46 2 -35 8 -60 17 -67 9 -7 16 -30 17 -61 1 -32 7
-54 17 -62 12 -9 12 -12 3 -13 -10 0 -12 -13 -6 -57 6 -53 16 -72 37 -73 4 0
7 8 7 17 0 13 3 14 12 5 9 -9 9 -15 0 -24 -15 -15 -16 -48 -2 -48 6 0 10 -11
10 -25 0 -18 5 -25 20 -25 25 0 26 26 3 52 -15 17 -15 18 0 18 10 0 17 8 17
18 0 14 4 12 19 -8 11 -13 19 -27 19 -30 -2 -25 4 -40 17 -40 8 0 15 -7 15
-15 0 -12 -4 -13 -19 -5 -28 14 -38 13 -60 -12 -18 -18 -22 -19 -37 -7 -17 13
-17 12 -1 -12 10 -14 29 -31 42 -37 24 -11 25 -10 15 7 -5 11 -10 25 -10 31 0
18 20 0 30 -26 5 -13 15 -24 22 -24 9 0 9 3 0 12 -16 16 -15 28 1 28 11 -1 42
-58 61 -115 7 -19 8 -19 20 4 8 14 16 19 20 13 3 -6 2 -13 -4 -17 -15 -9 -12
-28 4 -22 7 3 19 0 25 -6 7 -7 17 -12 24 -12 7 0 11 -10 9 -24 -2 -15 0 -21 7
-17 6 4 11 3 11 -2 0 -5 11 -12 25 -15 18 -3 29 1 36 15 5 10 14 16 19 13 4
-3 10 0 12 6 6 17 59 -8 65 -31 3 -11 10 -17 15 -14 5 3 15 -2 23 -12 13 -18
14 -18 35 1 l23 20 -7 -22 c-8 -26 11 -33 20 -8 4 8 15 15 25 15 10 0 19 5 19
10 0 6 7 10 15 10 19 0 19 9 -2 32 -15 17 -15 18 2 18 13 0 16 5 11 24 -4 16
-1 26 8 29 11 4 13 -3 9 -34 -5 -38 7 -53 23 -28 4 8 9 7 14 -2 5 -7 29 -18
54 -24 38 -10 48 -9 58 2 9 11 7 15 -10 20 -29 7 -28 21 3 33 14 5 25 16 25
25 0 8 5 15 10 15 6 0 10 -4 10 -10 0 -5 7 -7 15 -4 8 4 15 2 15 -4 0 -5 -8
-13 -17 -16 -12 -5 -14 -9 -5 -18 14 -14 16 -52 3 -44 -4 3 -16 -3 -25 -13
-17 -18 -16 -20 3 -26 24 -7 51 14 51 39 0 9 5 16 10 16 6 0 10 -10 10 -22 0
-20 1 -20 19 -3 20 17 20 16 9 -21 -6 -22 -16 -47 -24 -58 -11 -16 -10 -21 1
-32 7 -8 20 -14 28 -14 9 0 17 -5 19 -12 6 -16 117 52 118 72 1 9 5 6 10 -7 5
-13 12 -23 14 -23 17 0 56 25 56 37 0 7 9 13 20 13 22 0 26 -20 8 -38 -20 -20
2 -13 24 8 12 11 19 23 15 27 -4 3 5 14 21 23 31 20 46 7 29 -23 -9 -15 -9
-21 0 -24 16 -6 -2 -51 -30 -75 -28 -26 -2 -33 68 -18 56 12 57 12 51 41 -4
23 -2 31 12 35 9 3 25 10 34 15 25 13 28 12 28 -11 0 -13 7 -20 20 -20 23 0
26 13 6 29 -8 7 -12 21 -9 31 7 25 -12 26 -26 3 -9 -16 -10 -16 -11 5 0 13 6
22 15 22 8 0 15 6 15 14 0 20 22 25 39 8 13 -12 16 -12 28 4 12 16 10 21 -14
42 -25 21 -28 22 -40 6 -11 -16 -13 -16 -19 -1 -7 20 -35 22 -52 5 -7 -7 -12
-8 -12 -2 0 18 48 37 78 31 26 -5 31 -3 36 18 7 29 15 31 42 11 18 -14 18 -15
2 -21 -26 -10 -22 -25 7 -25 14 0 25 4 25 9 0 5 14 12 30 16 41 9 38 25 -5 25
-27 0 -33 3 -29 15 4 9 14 13 23 11 9 -3 22 -2 30 3 20 13 -5 24 -36 16 -23
-5 -25 -4 -14 9 7 8 11 22 9 32 -2 9 3 19 10 21 6 3 12 0 12 -6 0 -6 9 -11 19
-11 11 0 21 -6 24 -12 3 -9 9 -7 20 7 14 18 14 20 -3 23 -18 3 -32 43 -21 60
3 4 14 12 25 15 15 6 17 4 12 -18 -6 -23 -5 -24 19 -13 14 6 25 15 25 20 0 4
5 8 10 8 6 0 10 -6 10 -14 0 -8 7 -17 16 -20 9 -4 14 -9 11 -13 -4 -3 -13 -1
-20 6 -25 20 -44 2 -51 -49 -4 -27 -11 -52 -16 -55 -18 -11 -10 -26 13 -23 19
3 22 10 25 51 2 36 7 47 20 48 9 0 32 1 50 2 17 1 32 -1 32 -5 0 -10 -42 -22
-64 -19 -11 2 -17 -2 -14 -10 2 -7 26 -13 57 -15 29 -1 55 -5 58 -8 11 -11
-10 -26 -38 -26 -16 0 -29 -4 -29 -10 0 -5 7 -7 15 -3 9 3 24 -2 34 -11 15
-14 20 -14 30 -3 6 8 9 21 6 29 -4 10 1 17 14 21 27 7 27 32 -1 51 l-21 15 26
10 c14 6 31 20 37 32 11 20 11 21 -16 15 -16 -4 -36 -13 -44 -20 -22 -20 -73
-30 -68 -14 3 7 15 15 29 18 16 4 23 12 21 24 -3 15 1 17 22 12 19 -5 26 -2
26 8 0 25 28 40 53 28 21 -10 21 -11 -7 -11 -41 -1 -23 -14 55 -39 70 -24 99
-27 99 -13 0 11 -25 21 -51 21 -26 0 -47 44 -30 64 10 12 5 18 -30 37 -55 28
-35 41 41 27 30 -5 63 -11 73 -12 9 -1 23 -8 29 -14 7 -7 17 -12 23 -12 6 0
28 -16 49 -35 25 -22 33 -35 23 -35 -9 0 -19 5 -22 10 -8 13 -65 13 -65 0 0
-12 35 -31 44 -23 3 3 6 -1 6 -10 0 -9 5 -19 10 -22 15 -9 50 4 50 20 0 20 19
28 35 15 8 -6 16 -7 19 -2 7 12 -6 23 -64 50 -39 19 -41 22 -19 22 15 0 54
-18 87 -40 71 -48 86 -51 70 -14 -8 17 -18 24 -30 21 -10 -3 -18 0 -18 7 0 23
-37 48 -60 41 -19 -6 -20 -5 -9 13 7 12 17 18 23 15 5 -4 7 1 3 10 -3 10 -2
17 4 17 6 0 8 9 4 23 -6 18 -5 20 6 10 7 -7 12 -26 12 -43 0 -23 8 -37 29 -51
15 -11 28 -15 28 -9 0 16 -39 90 -67 128 -14 18 -22 39 -19 47 3 8 1 17 -4 20
-6 4 -10 -8 -10 -27 0 -25 -3 -29 -10 -18 -16 25 -12 80 5 80 13 0 12 7 -6 43
-19 37 -23 40 -30 22 -6 -16 -8 -17 -8 -3 -2 31 -20 29 -37 -3 -14 -28 -18
-30 -26 -16 -11 21 -28 22 -28 2 0 -21 -9 -19 -31 8 -13 15 -18 38 -19 75 0
33 -4 51 -10 47 -16 -10 -12 43 6 70 9 14 14 32 10 40 -6 17 -36 21 -36 4 0
-5 -5 -7 -10 -4 -6 4 -8 15 -5 26 8 24 -10 25 -54 3 -18 -9 -35 -14 -38 -11
-3 4 6 9 21 13 21 5 26 12 26 35 0 19 -5 29 -15 29 -8 0 -15 7 -15 15 0 8 -7
15 -15 15 -10 0 -15 -10 -15 -31 0 -25 -3 -29 -13 -20 -8 6 -17 8 -20 4 -4 -3
-7 -1 -7 5 0 5 5 12 12 14 7 3 13 15 14 29 1 13 7 37 13 53 13 33 10 40 -17
32 -12 -4 -18 -14 -17 -29 1 -12 0 -15 -2 -6 -2 10 -21 20 -45 25 -23 5 -43
15 -46 23 -3 9 2 11 17 6 23 -7 55 11 45 26 -3 5 -25 9 -50 9 -42 0 -44 -1
-44 -29 0 -31 30 -61 61 -61 19 0 52 -34 42 -43 -10 -10 -25 -8 -19 2 12 19
-24 34 -70 28 -44 -5 -67 -21 -61 -41 5 -16 27 -19 27 -4 0 10 10 13 33 10 31
-3 33 -6 29 -34 -4 -29 -4 -29 32 -23 l36 7 -17 -31 c-10 -17 -21 -31 -25 -31
-9 0 -48 69 -48 86 0 9 -6 14 -12 11 -8 -2 -12 -17 -10 -35 2 -18 -3 -41 -11
-52 -14 -21 -14 -21 -20 2 -4 13 -2 25 3 26 6 2 10 10 10 19 0 10 -6 12 -20 8
-16 -5 -19 -3 -13 12 6 15 4 16 -9 6 -23 -19 -28 -5 -22 52 6 48 5 53 -16 58
-16 4 -20 11 -16 25 5 15 1 21 -16 26 l-23 7 23 9 c28 12 28 19 -2 48 -23 21
-25 22 -35 5 -10 -17 -10 -16 -11 3 0 27 17 40 54 42 36 2 43 9 28 24 -9 9
-17 10 -30 1 -15 -9 -21 -7 -30 7 -6 10 -8 27 -5 38 4 17 0 21 -23 24 -15 2
-30 10 -32 18 -5 13 -3 13 12 0 16 -12 20 -11 37 10 22 30 19 46 -9 43 -15 -2
-19 2 -15 16 6 24 -15 38 -23 16 -9 -23 -26 3 -18 28 3 10 -1 19 -10 23 -9 3
-16 14 -16 24 0 22 -16 35 -25 20 -11 -18 -20 -11 -21 18 -1 25 2 28 23 24 18
-3 23 0 23 15 0 28 -7 32 -38 24 -22 -6 -35 -1 -69 27 -43 35 -53 56 -30 65 7
3 2 9 -13 15 -14 6 -21 11 -15 11 5 1 -14 24 -44 52 -35 33 -60 49 -72 46 -10
-3 -20 1 -23 9 -3 8 -12 14 -21 14 -8 0 -15 5 -15 10 0 14 -28 12 -33 -2 -3
-10 -7 -10 -19 0 -8 6 -34 13 -56 15 -23 1 -44 6 -48 10 -11 11 -44 8 -44 -3
0 -5 -7 -10 -15 -10 -8 0 -15 5 -15 10 0 11 -13 13 -23 4z m-280 -329 c-4 -8
-11 -15 -17 -15 -7 0 -7 6 0 21 13 23 26 19 17 -6z m-527 -467 c0 -7 3 -24 6
-38 l5 -25 -15 25 c-18 29 -20 50 -6 50 6 0 10 -6 10 -12z m-140 -89 c0 -17
-20 -29 -20 -11 0 4 -3 18 -7 32 -6 22 -5 24 10 11 9 -7 17 -22 17 -32z m-40
-69 c11 -6 17 -17 14 -25 -9 -22 -44 26 -43 57 l2 23 4 -23 c2 -12 13 -27 23
-32z m330 40 c0 -5 -4 -10 -10 -10 -5 0 -10 5 -10 10 0 6 5 10 10 10 6 0 10
-4 10 -10z m-28 -85 c0 -5 -5 -11 -10 -13 -5 -1 -9 4 -9 13 0 9 4 14 9 13 5
-2 10 -8 10 -13z m343 -10 c0 -10 -6 -20 -12 -22 -8 -3 -13 5 -13 22 0 17 5
25 13 23 6 -3 12 -13 12 -23z m1228 -12 c-6 -19 -32 -43 -45 -43 -4 0 -8 9 -8
20 0 13 5 18 15 14 9 -4 15 0 15 10 0 9 7 16 15 16 9 0 12 -6 8 -17z m-1129
-9 c9 -24 -4 -32 -16 -11 -9 18 -10 18 -24 0 -11 -13 -14 -14 -12 -3 6 31 42
40 52 14z m66 0 c0 -8 -5 -12 -10 -9 -6 4 -8 11 -5 16 9 14 15 11 15 -7z
m-530 -25 c0 -18 -4 -28 -10 -24 -6 4 -8 11 -5 16 4 5 0 9 -9 9 -8 0 -16 -6
-19 -12 -2 -7 -8 -10 -12 -6 -8 7 32 47 48 48 4 0 7 -14 7 -31z m35 1 c3 -5 1
-10 -4 -10 -6 0 -11 5 -11 10 0 6 2 10 4 10 3 0 8 -4 11 -10z m195 -50 c0 -5
-5 -10 -11 -10 -5 0 -7 5 -4 10 3 6 8 10 11 10 2 0 4 -4 4 -10z m-303 -46 c-3
-3 -12 -4 -19 -1 -8 3 -5 6 6 6 11 1 17 -2 13 -5z m506 -49 c29 -5 37 -10 35
-23 -2 -9 -13 -18 -25 -20 -12 -2 -26 -9 -32 -16 -11 -13 -61 -10 -61 4 0 4
12 5 26 2 20 -4 25 -1 22 9 -3 8 -14 13 -24 12 -14 -1 -19 5 -20 22 -2 20 2
24 20 20 11 -2 38 -7 59 -10z m-516 -1 c-3 -3 -12 -4 -19 -1 -8 3 -5 6 6 6 11
1 17 -2 13 -5z m53 -14 c0 -5 -7 -10 -16 -10 -8 0 -12 5 -9 10 3 6 10 10 16
10 5 0 9 -4 9 -10z m335 -10 c3 -5 1 -10 -4 -10 -6 0 -11 5 -11 10 0 6 2 10 4
10 3 0 8 -4 11 -10z m1475 0 c0 -5 -2 -10 -4 -10 -3 0 -8 5 -11 10 -3 6 -1 10
4 10 6 0 11 -4 11 -10z m35 0 c3 -5 1 -10 -4 -10 -6 0 -11 5 -11 10 0 6 2 10
4 10 3 0 8 -4 11 -10z m-1590 -10 c-3 -5 -18 -10 -33 -9 l-27 1 25 8 c35 11
42 11 35 0z m105 -20 c0 -5 -7 -10 -16 -10 -8 0 -12 5 -9 10 3 6 10 10 16 10
5 0 9 -4 9 -10z m-260 -10 c0 -5 -5 -10 -11 -10 -5 0 -7 5 -4 10 3 6 8 10 11
10 2 0 4 -4 4 -10z m460 -26 c0 -2 -9 -4 -20 -4 -11 0 -20 4 -20 9 0 5 9 7 20
4 11 -3 20 -7 20 -9z m70 -15 c11 -19 10 -20 -10 -9 -11 6 -18 15 -15 21 9 13
13 11 25 -12z m-195 -5 c-9 -9 -18 -14 -21 -11 -9 9 6 27 22 27 13 0 13 -2 -1
-16z m151 -64 c0 -11 -1 -20 -2 -20 -1 0 -10 3 -18 6 -13 5 -14 9 -5 20 16 20
25 17 25 -6z m-86 -4 c0 -3 -4 -8 -10 -11 -5 -3 -10 -1 -10 4 0 6 5 11 10 11
6 0 10 -2 10 -4z m190 -38 c0 -6 -7 -5 -15 2 -8 7 -15 17 -15 22 0 6 7 5 15
-2 8 -7 15 -17 15 -22z m-60 12 c0 -5 -2 -10 -4 -10 -3 0 -8 5 -11 10 -3 6 -1
10 4 10 6 0 11 -4 11 -10z m-70 -10 c11 -7 3 -10 -28 -10 -50 0 -48 -16 3 -26
19 -3 35 -9 35 -13 0 -17 -14 -19 -34 -6 -11 8 -37 15 -57 15 -32 0 -36 3 -32
19 7 26 84 40 113 21z m94 -26 c9 -3 16 -10 16 -14 0 -10 -38 -1 -46 11 -6 10
7 12 30 3z m-325 -13 c23 -15 -3 -20 -29 -5 -22 12 -23 13 -5 13 11 1 26 -3
34 -8z m-485 -23 c-1 -13 -3 -32 -4 -43 l-1 -20 -9 20 c-13 31 -11 65 3 65 8
0 13 -9 11 -22z m2191 -18 c3 -5 2 -10 -4 -10 -5 0 -13 5 -16 10 -3 6 -2 10 4
10 5 0 13 -4 16 -10z m-2041 -67 c-1 -42 -18 -63 -36 -44 -11 10 -10 14 5 22
21 12 23 33 1 25 -20 -8 -35 1 -28 17 2 7 17 12 32 13 24 1 27 -2 26 -33z
m1427 -26 c10 3 19 0 19 -6 0 -12 -14 -14 -47 -5 -26 7 -29 23 -10 43 10 10
13 7 15 -12 2 -19 8 -24 23 -20z m-81 14 c0 -6 -4 -13 -10 -16 -5 -3 -10 1
-10 9 0 9 5 16 10 16 6 0 10 -4 10 -9z m-112 -59 c2 -7 -3 -12 -12 -12 -9 0
-16 7 -16 16 0 17 22 14 28 -4z m379 2 c-3 -3 -12 -4 -19 -1 -8 3 -5 6 6 6 11
1 17 -2 13 -5z m-457 -39 c-7 -8 -17 -15 -23 -15 -5 0 -2 9 8 20 21 23 35 19
15 -5z m110 -15 c0 -5 -5 -10 -11 -10 -5 0 -7 5 -4 10 3 6 8 10 11 10 2 0 4
-4 4 -10z m-235 -40 c9 0 12 -6 9 -15 -4 -8 -1 -15 5 -15 6 0 11 -7 11 -15 0
-26 -27 -16 -40 15 -7 17 -16 30 -21 30 -5 0 -9 7 -9 16 0 14 1 14 16 0 8 -9
22 -16 29 -16z m-851 8 c-5 -8 -2 -9 9 -5 9 3 19 2 22 -3 4 -6 2 -10 -4 -10
-5 0 -16 -3 -25 -6 -12 -4 -16 0 -16 15 0 12 5 21 11 21 5 0 7 -5 3 -12z m936
8 c0 -3 -4 -8 -10 -11 -5 -3 -10 -1 -10 4 0 6 5 11 10 11 6 0 10 -2 10 -4z
m77 -48 c-3 -8 -6 -5 -6 6 -1 11 2 17 5 13 3 -3 4 -12 1 -19z m67 14 c6 -10
-22 -47 -30 -40 -3 4 -3 16 1 27 6 21 20 27 29 13z m51 -49 c-11 -7 -22 -13
-27 -13 -14 0 -8 19 9 29 25 13 40 1 18 -16z m-681 -15 c-6 -31 -28 -57 -48
-58 -5 0 -2 8 6 18 8 9 18 29 22 45 3 15 11 27 17 27 7 0 8 -12 3 -32z m-114
13 c0 -5 10 -7 23 -4 17 5 19 3 11 -7 -7 -6 -20 -10 -30 -8 -19 3 -32 28 -15
28 6 0 11 -4 11 -9z m420 -21 c0 -5 -4 -10 -10 -10 -5 0 -10 5 -10 10 0 6 5
10 10 10 6 0 10 -4 10 -10z m-530 -10 c0 -5 -4 -10 -10 -10 -5 0 -10 5 -10 10
0 6 5 10 10 10 6 0 10 -4 10 -10z m342 -12 c-7 -7 -12 -8 -12 -2 0 14 12 26
19 19 2 -3 -1 -11 -7 -17z m418 -4 c0 -8 -5 -12 -10 -9 -6 4 -8 11 -5 16 9 14
15 11 15 -7z m-110 -46 c0 -10 -4 -18 -10 -18 -5 0 -10 9 -10 20 0 11 -7 20
-16 20 -8 0 -12 4 -9 10 9 14 45 -11 45 -32z m-87 21 c-8 -8 -16 -8 -30 0 -16
9 -14 10 12 11 21 0 26 -3 18 -11z m147 1 c0 -5 -7 -10 -15 -10 -8 0 -15 5
-15 10 0 6 7 10 15 10 8 0 15 -4 15 -10z m53 -25 c-12 -9 -19 -10 -22 -3 -4
12 20 29 32 21 4 -3 0 -11 -10 -18z m97 -15 c0 -5 -14 -10 -31 -10 -17 0 -28
4 -24 10 3 6 17 10 31 10 13 0 24 -4 24 -10z m-310 -20 c0 -11 -2 -20 -4 -20
-2 0 -6 9 -9 20 -3 11 -1 20 4 20 5 0 9 -9 9 -20z m130 6 c0 -3 -4 -8 -10 -11
-5 -3 -10 -1 -10 4 0 6 5 11 10 11 6 0 10 -2 10 -4z m-46 -21 c4 -11 -2 -15
-24 -15 -46 0 -38 20 11 29 4 0 9 -6 13 -14z m156 -1 c0 -8 -5 -12 -10 -9 -6
4 -8 11 -5 16 9 14 15 11 15 -7z m-366 -56 c-4 -6 -2 -8 4 -4 6 3 13 2 17 -3
7 -13 -32 -34 -51 -27 -19 7 -18 36 1 36 8 0 15 5 15 11 0 5 5 7 10 4 6 -4 7
-11 4 -17z"/>
<path d="M1671 9004 c-16 -19 -15 -19 33 -33 51 -13 57 -7 23 24 -30 29 -37
30 -56 9z"/>
<path d="M2130 9010 c0 -5 5 -10 11 -10 5 0 7 5 4 10 -3 6 -8 10 -11 10 -2 0
-4 -4 -4 -10z"/>
<path d="M1560 8980 c0 -5 5 -10 10 -10 6 0 10 5 10 10 0 6 -4 10 -10 10 -5 0
-10 -4 -10 -10z"/>
<path d="M2170 8975 c0 -8 7 -15 16 -15 14 0 14 3 4 15 -7 8 -14 15 -16 15 -2
0 -4 -7 -4 -15z"/>
<path d="M2088 8963 c-6 -22 7 -52 17 -41 4 4 3 19 -2 35 -9 25 -10 26 -15 6z"/>
<path d="M1652 8958 c5 -15 28 -23 28 -10 0 5 -7 13 -16 16 -10 4 -14 1 -12
-6z"/>
<path d="M1575 8920 c-3 -5 -1 -10 4 -10 6 0 11 5 11 10 0 6 -2 10 -4 10 -3 0
-8 -4 -11 -10z"/>
<path d="M2355 8900 c-3 -5 1 -10 10 -10 9 0 13 5 10 10 -3 6 -8 10 -10 10 -2
0 -7 -4 -10 -10z"/>
<path d="M2637 8893 c-4 -3 -7 -13 -7 -22 1 -13 3 -13 11 2 11 19 8 33 -4 20z"/>
<path d="M1825 8880 c3 -5 10 -10 16 -10 5 0 9 5 9 10 0 6 -7 10 -16 10 -8 0
-12 -4 -9 -10z"/>
<path d="M2310 8840 c0 -5 5 -10 10 -10 6 0 10 5 10 10 0 6 -4 10 -10 10 -5 0
-10 -4 -10 -10z"/>
<path d="M4065 8840 c-3 -5 -1 -10 4 -10 6 0 11 5 11 10 0 6 -2 10 -4 10 -3 0
-8 -4 -11 -10z"/>
<path d="M2210 8809 c0 -5 5 -7 10 -4 6 3 10 8 10 11 0 2 -4 4 -10 4 -5 0 -10
-5 -10 -11z"/>
<path d="M3970 8809 c0 -11 30 -12 48 0 9 5 3 8 -17 9 -17 0 -31 -4 -31 -9z"/>
<path d="M2365 8781 c-3 -5 -1 -12 5 -16 5 -3 10 1 10 9 0 18 -6 21 -15 7z"/>
<path d="M3943 8782 c-12 -2 -27 -10 -33 -18 -14 -16 0 -17 54 -5 23 5 26 8
15 16 -8 6 -24 9 -36 7z"/>
<path d="M4044 8767 c-26 -15 -88 -86 -82 -93 3 -2 25 -2 49 2 32 5 53 17 77
42 l34 35 -24 13 c-28 16 -28 16 -54 1z m26 -46 c0 -5 -7 -14 -15 -21 -16 -14
-18 -10 -9 14 6 17 24 22 24 7z"/>
<path d="M2355 8690 c3 -5 8 -10 11 -10 2 0 4 5 4 10 0 6 -5 10 -11 10 -5 0
-7 -4 -4 -10z"/>
<path d="M4065 8640 c3 -5 8 -10 11 -10 2 0 4 5 4 10 0 6 -5 10 -11 10 -5 0
-7 -4 -4 -10z"/>
<path d="M1885 8580 c3 -5 8 -10 11 -10 2 0 4 5 4 10 0 6 -5 10 -11 10 -5 0
-7 -4 -4 -10z"/>
<path d="M3967 8555 c-7 -23 -3 -61 6 -57 4 1 12 2 18 2 8 0 8 4 1 13 -5 6
-12 23 -14 37 -3 23 -4 23 -11 5z"/>
<path d="M2500 8539 c0 -11 4 -18 10 -14 5 3 7 12 3 20 -7 21 -13 19 -13 -6z"/>
<path d="M2615 8530 c-3 -5 -1 -10 4 -10 6 0 11 5 11 10 0 6 -2 10 -4 10 -3 0
-8 -4 -11 -10z"/>
<path d="M1696 8521 c-4 -7 -5 -15 -2 -18 9 -9 19 4 14 18 -4 11 -6 11 -12 0z"/>
<path d="M2672 8522 c-7 -5 -10 -16 -6 -25 9 -25 24 -20 24 8 0 28 0 28 -18
17z"/>
<path d="M2530 8460 c0 -5 5 -10 10 -10 6 0 10 5 10 10 0 6 -4 10 -10 10 -5 0
-10 -4 -10 -10z"/>
<path d="M4950 8460 c0 -5 5 -10 11 -10 5 0 7 5 4 10 -3 6 -8 10 -11 10 -2 0
-4 -4 -4 -10z"/>
<path d="M1420 8435 c0 -8 5 -15 10 -15 6 0 10 7 10 15 0 8 -4 15 -10 15 -5 0
-10 -7 -10 -15z"/>
<path d="M2565 8440 c-3 -5 -1 -10 4 -10 6 0 11 5 11 10 0 6 -2 10 -4 10 -3 0
-8 -4 -11 -10z"/>
<path d="M4246 8415 c-3 -8 -1 -15 4 -15 6 0 10 7 10 15 0 8 -2 15 -4 15 -2 0
-6 -7 -10 -15z"/>
<path d="M4881 8404 c-10 -23 -9 -30 4 -43 14 -14 17 -14 25 -1 13 19 9 62 -6
67 -6 2 -16 -9 -23 -23z"/>
<path d="M4016 8405 c-10 -27 -7 -35 15 -35 15 0 20 5 17 22 -4 27 -23 35 -32
13z"/>
<path d="M1867 8403 c-4 -3 -7 -11 -7 -17 0 -6 5 -5 12 2 6 6 9 14 7 17 -3 3
-9 2 -12 -2z"/>
<path d="M2440 8400 c0 -5 5 -10 10 -10 6 0 10 5 10 10 0 6 -4 10 -10 10 -5 0
-10 -4 -10 -10z"/>
<path d="M2060 8385 c-7 -9 -8 -15 -2 -15 5 0 12 7 16 15 3 8 4 15 2 15 -2 0
-9 -7 -16 -15z"/>
<path d="M2490 8369 c0 -5 5 -7 10 -4 6 3 10 8 10 11 0 2 -4 4 -10 4 -5 0 -10
-5 -10 -11z"/>
<path d="M1815 8360 c4 -6 11 -8 16 -5 14 9 11 15 -7 15 -8 0 -12 -5 -9 -10z"/>
<path d="M2020 8355 c0 -5 5 -17 10 -25 5 -8 10 -10 10 -5 0 6 -5 17 -10 25
-5 8 -10 11 -10 5z"/>
<path d="M2375 8340 c-3 -5 1 -10 9 -10 9 0 16 5 16 10 0 6 -4 10 -9 10 -6 0
-13 -4 -16 -10z"/>
<path d="M4085 8329 c-10 -15 1 -23 20 -15 9 3 13 10 10 16 -8 13 -22 13 -30
-1z"/>
<path d="M4740 8328 c0 -18 18 -34 28 -24 3 4 -2 14 -11 23 -16 16 -17 16 -17
1z"/>
<path d="M2145 8320 c3 -5 8 -10 11 -10 2 0 4 5 4 10 0 6 -5 10 -11 10 -5 0
-7 -4 -4 -10z"/>
<path d="M1177 8299 c-3 -12 0 -22 9 -26 9 -3 12 -13 9 -24 -4 -11 -2 -19 4
-19 14 0 14 37 1 45 -7 4 -7 13 0 26 8 15 7 19 -3 19 -8 0 -17 -9 -20 -21z"/>
<path d="M4008 8283 c-24 -6 -23 -23 2 -23 11 0 23 0 28 0 11 0 9 23 -3 25 -5
2 -18 1 -27 -2z"/>
<path d="M1290 8270 c0 -5 5 -10 10 -10 6 0 10 5 10 10 0 6 -4 10 -10 10 -5 0
-10 -4 -10 -10z"/>
<path d="M2330 8269 c0 -5 5 -7 10 -4 6 3 10 8 10 11 0 2 -4 4 -10 4 -5 0 -10
-5 -10 -11z"/>
<path d="M1041 8234 c0 -11 3 -14 6 -6 3 7 2 16 -1 19 -3 4 -6 -2 -5 -13z"/>
<path d="M4036 8215 c4 -8 17 -15 30 -15 15 0 24 6 24 15 0 10 -10 15 -30 15
-22 0 -28 -4 -24 -15z"/>
<path d="M2195 8190 c3 -5 10 -10 16 -10 5 0 9 5 9 10 0 6 -7 10 -16 10 -8 0
-12 -4 -9 -10z"/>
<path d="M4265 8190 c-3 -5 -4 -14 0 -20 8 -13 35 -1 35 16 0 16 -26 19 -35 4z"/>
<path d="M4025 8180 c3 -5 8 -10 11 -10 2 0 4 5 4 10 0 6 -5 10 -11 10 -5 0
-7 -4 -4 -10z"/>
<path d="M1137 8140 c3 -11 7 -20 9 -20 2 0 4 9 4 20 0 11 -4 20 -9 20 -5 0
-7 -9 -4 -20z"/>
<path d="M1082 8128 c6 -18 28 -21 28 -4 0 9 -7 16 -16 16 -9 0 -14 -5 -12
-12z"/>
<path d="M2127 8097 c-3 -7 -1 -20 3 -28 7 -11 10 -10 16 4 4 10 2 23 -3 28
-7 7 -12 6 -16 -4z"/>
<path d="M2032 8079 c2 -7 10 -15 17 -17 8 -3 12 1 9 9 -2 7 -10 15 -17 17 -8
3 -12 -1 -9 -9z"/>
<path d="M4775 8080 c3 -5 10 -10 16 -10 5 0 9 5 9 10 0 6 -7 10 -16 10 -8 0
-12 -4 -9 -10z"/>
<path d="M1075 8061 c-3 -5 -1 -12 5 -16 5 -3 10 1 10 9 0 18 -6 21 -15 7z"/>
<path d="M2090 8054 c0 -8 5 -12 10 -9 6 4 8 11 5 16 -9 14 -15 11 -15 -7z"/>
<path d="M2008 8043 c7 -3 16 -2 19 1 4 3 -2 6 -13 5 -11 0 -14 -3 -6 -6z"/>
<path d="M1040 8019 c7 -11 14 -18 17 -15 8 8 -5 36 -17 36 -7 0 -7 -6 0 -21z"/>
<path d="M2050 8020 c0 -5 5 -10 10 -10 6 0 10 5 10 10 0 6 -4 10 -10 10 -5 0
-10 -4 -10 -10z"/>
<path d="M2090 8010 c0 -5 5 -10 10 -10 6 0 10 5 10 10 0 6 -4 10 -10 10 -5 0
-10 -4 -10 -10z"/>
<path d="M955 7974 c1 -22 -2 -42 -7 -45 -7 -4 -6 -14 1 -28 7 -12 16 -19 20
-17 10 7 2 108 -9 120 -5 5 -7 -9 -5 -30z"/>
<path d="M2027 7993 c-3 -5 -2 -15 2 -22 7 -10 10 -10 16 -1 4 6 3 16 -3 22
-5 5 -12 6 -15 1z"/>
<path d="M2090 7956 c0 -19 5 -38 10 -41 6 -3 10 -15 10 -26 0 -10 7 -19 15
-19 8 0 15 -4 15 -10 0 -5 5 -10 10 -10 16 0 12 14 -15 54 -14 20 -25 48 -25
61 0 14 -4 25 -10 25 -5 0 -10 -15 -10 -34z"/>
<path d="M4420 7975 c-11 -13 -11 -20 0 -39 9 -18 9 -28 0 -46 -9 -18 -9 -25
6 -41 11 -12 13 -19 5 -19 -7 0 -9 -4 -6 -10 3 -5 15 -10 27 -10 16 0 19 5 16
25 -3 14 -1 28 3 31 5 3 9 23 9 45 0 36 -2 40 -20 34 -18 -6 -20 -3 -14 19 7
29 -7 34 -26 11z"/>
<path d="M2050 7945 c0 -9 5 -15 11 -13 6 2 11 8 11 13 0 5 -5 11 -11 13 -6 2
-11 -4 -11 -13z"/>
<path d="M4490 7931 c0 -16 5 -42 11 -58 l12 -28 9 35 c7 24 6 36 -1 38 -6 2
-11 12 -11 23 0 10 -4 19 -10 19 -5 0 -10 -13 -10 -29z"/>
<path d="M2020 7940 c0 -8 4 -31 10 -50 6 -21 6 -38 1 -43 -6 -6 -12 5 -16 27
-4 21 -13 36 -21 36 -8 0 -14 5 -14 12 0 6 -3 9 -6 6 -11 -12 23 -103 39 -102
8 1 20 -10 26 -24 11 -24 11 -24 -20 -18 -17 3 -42 17 -55 31 -25 27 -64 34
-64 11 0 -8 5 -18 10 -21 6 -3 10 -17 10 -31 0 -16 6 -24 17 -24 13 0 14 3 5
12 -19 19 -14 33 6 15 21 -19 42 -22 42 -7 0 22 68 -59 75 -89 4 -17 13 -31
21 -31 8 0 28 -15 44 -32 44 -49 40 -8 -5 45 -19 22 -35 47 -35 54 0 8 -7 25
-16 38 -21 33 -8 32 18 0 11 -14 25 -25 33 -25 7 0 15 -7 19 -15 3 -8 10 -15
16 -15 7 0 8 6 0 19 -22 41 -8 44 30 6 27 -27 39 -49 40 -68 0 -25 -2 -27 -21
-17 -16 9 -18 14 -9 25 12 15 6 35 -12 35 -5 0 -8 -7 -4 -15 3 -8 1 -15 -4
-15 -19 0 -10 -42 10 -47 13 -3 20 -14 20 -29 0 -13 5 -24 10 -24 6 0 10 14
10 31 0 22 5 32 20 36 22 6 25 19 10 57 -6 17 -14 24 -24 20 -11 -4 -21 5 -33
30 -9 20 -20 36 -24 36 -4 0 -12 14 -18 30 -5 17 -17 30 -26 30 -13 0 -15 -7
-9 -35 9 -49 -14 -46 -49 7 -24 37 -25 43 -12 58 21 23 21 47 0 30 -12 -10
-15 -10 -15 2 0 20 -29 58 -30 38z"/>
<path d="M1925 7920 c3 -5 11 -10 16 -10 6 0 7 5 4 10 -3 6 -11 10 -16 10 -6
0 -7 -4 -4 -10z"/>
<path d="M4860 7920 c0 -5 5 -10 10 -10 6 0 10 5 10 10 0 6 -4 10 -10 10 -5 0
-10 -4 -10 -10z"/>
<path d="M991 7904 c0 -11 3 -14 6 -6 3 7 2 16 -1 19 -3 4 -6 -2 -5 -13z"/>
<path d="M1165 7900 c-3 -5 -1 -10 4 -10 6 0 11 5 11 10 0 6 -2 10 -4 10 -3 0
-8 -4 -11 -10z"/>
<path d="M1880 7875 c0 -8 5 -15 10 -15 6 0 10 7 10 15 0 8 -4 15 -10 15 -5 0
-10 -7 -10 -15z"/>
<path d="M1924 7878 c-4 -6 1 -17 11 -25 34 -24 46 -13 21 20 -15 20 -22 21
-32 5z"/>
<path d="M1840 7870 c0 -5 5 -10 11 -10 5 0 7 5 4 10 -3 6 -8 10 -11 10 -2 0
-4 -4 -4 -10z"/>
<path d="M1055 7850 c3 -5 8 -10 11 -10 2 0 4 5 4 10 0 6 -5 10 -11 10 -5 0
-7 -4 -4 -10z"/>
<path d="M2170 7840 c0 -11 7 -20 15 -20 17 0 18 2 9 24 -9 23 -24 20 -24 -4z"/>
<path d="M2090 7836 c0 -9 5 -16 10 -16 6 0 10 4 10 9 0 6 -4 13 -10 16 -5 3
-10 -1 -10 -9z"/>
<path d="M4620 7838 c0 -9 5 -20 10 -23 13 -8 13 5 0 25 -8 13 -10 13 -10 -2z"/>
<path d="M4790 7830 c0 -5 5 -10 10 -10 6 0 10 5 10 10 0 6 -4 10 -10 10 -5 0
-10 -4 -10 -10z"/>
<path d="M1031 7794 c0 -11 3 -14 6 -6 3 7 2 16 -1 19 -3 4 -6 -2 -5 -13z"/>
<path d="M2210 7791 c0 -22 16 -36 24 -22 8 12 -3 41 -15 41 -5 0 -9 -9 -9
-19z"/>
<path d="M4604 7777 c3 -10 6 -23 6 -28 0 -5 5 -9 10 -9 14 0 12 13 -6 36 -14
17 -15 17 -10 1z"/>
<path d="M1091 7739 c11 -22 29 -25 29 -5 0 7 -9 16 -20 19 -17 4 -18 2 -9
-14z"/>
<path d="M4664 7734 c3 -9 6 -18 6 -20 0 -2 5 -4 10 -4 6 0 10 9 10 20 0 12
-7 20 -16 20 -11 0 -14 -5 -10 -16z"/>
<path d="M981 7729 c-1 -8 6 -24 15 -35 15 -19 15 -19 6 1 -5 11 -12 27 -15
35 -5 13 -6 13 -6 -1z"/>
<path d="M1872 7729 c2 -7 10 -15 17 -17 8 -3 12 1 9 9 -2 7 -10 15 -17 17 -8
3 -12 -1 -9 -9z"/>
<path d="M2010 7721 c0 -12 5 -21 10 -21 6 0 10 6 10 14 0 8 -4 18 -10 21 -5
3 -10 -3 -10 -14z"/>
<path d="M1910 7711 c0 -6 5 -13 10 -16 6 -3 10 1 10 9 0 9 -4 16 -10 16 -5 0
-10 -4 -10 -9z"/>
<path d="M4645 7710 c3 -5 8 -10 11 -10 2 0 4 5 4 10 0 6 -5 10 -11 10 -5 0
-7 -4 -4 -10z"/>
<path d="M1970 7686 c0 -16 26 -46 40 -46 5 0 7 8 3 18 -14 38 -43 57 -43 28z"/>
<path d="M4713 7686 c4 -10 7 -22 7 -27 0 -5 4 -9 9 -9 12 0 2 38 -12 47 -7 4
-8 0 -4 -11z"/>
<path d="M2030 7666 c0 -8 5 -18 10 -21 6 -3 10 3 10 14 0 12 -4 21 -10 21 -5
0 -10 -6 -10 -14z"/>
<path d="M4620 7671 c0 -6 5 -13 10 -16 6 -3 10 1 10 9 0 9 -4 16 -10 16 -5 0
-10 -4 -10 -9z"/>
<path d="M1010 7638 c0 -18 5 -28 15 -28 18 0 20 -31 3 -48 -9 -9 -9 -12 0
-12 7 0 14 6 16 13 2 6 8 27 14 45 10 30 9 32 -8 27 -12 -4 -22 1 -29 12 -9
16 -10 14 -11 -9z"/>
<path d="M1950 7631 c0 -6 8 -15 19 -20 10 -6 22 -22 25 -36 4 -14 13 -25 21
-25 18 0 19 12 3 28 -7 7 -13 22 -13 35 0 17 -7 23 -27 25 -16 2 -28 -1 -28
-7z"/>
<path d="M4690 7615 c0 -14 4 -25 9 -25 4 0 6 11 3 25 -2 14 -6 25 -8 25 -2 0
-4 -11 -4 -25z"/>
<path d="M4750 7630 c0 -5 5 -10 11 -10 5 0 7 5 4 10 -3 6 -8 10 -11 10 -2 0
-4 -4 -4 -10z"/>
<path d="M2030 7619 c0 -17 20 -49 31 -49 5 0 3 14 -6 30 -16 31 -25 38 -25
19z"/>
<path d="M2060 7619 c0 -6 14 -24 31 -40 18 -16 28 -33 24 -37 -4 -4 -10 -1
-12 6 -3 6 -9 12 -14 12 -5 0 -2 -11 7 -25 9 -14 20 -25 25 -25 18 0 8 54 -17
87 -25 33 -44 43 -44 22z"/>
<path d="M2257 7623 c-4 -3 -7 -11 -7 -17 0 -6 5 -5 12 2 6 6 9 14 7 17 -3 3
-9 2 -12 -2z"/>
<path d="M4790 7600 c0 -5 4 -10 9 -10 6 0 13 5 16 10 3 6 -1 10 -9 10 -9 0
-16 -4 -16 -10z"/>
<path d="M2170 7585 c0 -8 5 -15 10 -15 6 0 10 7 10 15 0 8 -4 15 -10 15 -5 0
-10 -7 -10 -15z"/>
<path d="M4861 7584 c0 -11 3 -14 6 -6 3 7 2 16 -1 19 -3 4 -6 -2 -5 -13z"/>
<path d="M1942 7574 c1 -9 9 -19 16 -22 9 -3 13 2 10 14 -1 9 -9 19 -16 22 -9
3 -13 -2 -10 -14z"/>
<path d="M4691 7556 c10 -21 47 -42 57 -31 8 7 -10 45 -19 40 -5 -3 -18 -1
-29 5 -18 10 -19 9 -9 -14z"/>
<path d="M2210 7542 c0 -19 18 -42 32 -42 12 0 9 35 -4 48 -17 17 -28 15 -28
-6z"/>
<path d="M4780 7550 c-13 -8 -13 -11 2 -26 16 -17 18 -17 24 0 9 23 -7 38 -26
26z"/>
<path d="M2040 7531 c0 -20 27 -48 37 -37 9 8 -14 56 -27 56 -5 0 -10 -8 -10
-19z"/>
<path d="M2160 7531 c0 -10 7 -21 15 -25 11 -4 15 1 15 19 0 16 -6 25 -15 25
-8 0 -15 -9 -15 -19z"/>
<path d="M4340 7536 c0 -5 98 -66 106 -66 3 0 4 7 0 15 -6 17 9 21 19 5 3 -5
14 -10 23 -10 13 0 12 5 -8 20 -17 14 -34 18 -53 14 -19 -4 -29 -1 -33 10 -5
14 -54 24 -54 12z"/>
<path d="M4700 7501 c0 -12 5 -21 10 -21 6 0 10 6 10 14 0 8 -4 18 -10 21 -5
3 -10 -3 -10 -14z"/>
<path d="M4750 7509 c0 -5 -5 -7 -11 -3 -8 5 -10 -1 -5 -19 4 -16 1 -27 -7
-31 -9 -5 -9 -7 0 -12 7 -3 10 -11 7 -19 -3 -7 10 -24 29 -39 41 -31 47 -32
40 -5 -4 12 -11 18 -20 15 -11 -5 -14 4 -13 42 3 70 1 82 -10 82 -5 0 -10 -5
-10 -11z"/>
<path d="M2140 7490 c0 -5 5 -10 10 -10 6 0 10 5 10 10 0 6 -4 10 -10 10 -5 0
-10 -4 -10 -10z"/>
<path d="M2096 7474 c-3 -9 -6 -16 -6 -17 0 -1 11 -3 25 -3 27 -2 31 6 13 24
-16 16 -25 15 -32 -4z"/>
<path d="M4357 7483 c-13 -12 -7 -23 13 -23 11 0 20 7 20 15 0 15 -21 21 -33
8z"/>
<path d="M2176 7471 c-3 -5 1 -11 9 -15 8 -3 15 -1 15 4 0 13 -18 22 -24 11z"/>
<path d="M4780 7453 c0 -13 5 -23 10 -23 13 0 13 11 0 30 -8 12 -10 11 -10 -7z"/>
<path d="M4405 7450 c-3 -5 1 -10 10 -10 8 0 18 -6 21 -14 3 -8 14 -14 25 -13
24 2 24 5 -3 28 -26 21 -44 24 -53 9z"/>
<path d="M2180 7420 c0 -8 5 -22 10 -30 9 -13 10 -13 10 0 0 8 -5 22 -10 30
-9 13 -10 13 -10 0z"/>
<path d="M2411 7414 c0 -11 3 -14 6 -6 3 7 2 16 -1 19 -3 4 -6 -2 -5 -13z"/>
<path d="M4650 7412 c0 -29 -10 -32 -43 -15 -22 11 -32 12 -35 4 -2 -6 -11
-11 -19 -11 -13 0 -13 -3 -3 -15 7 -8 20 -15 30 -15 10 0 23 -7 30 -15 14 -16
55 -21 45 -5 -3 6 4 10 15 10 17 0 20 4 15 18 -4 9 -10 27 -12 40 -6 26 -23
30 -23 4z"/>
<path d="M4615 7410 c3 -5 11 -10 16 -10 6 0 7 5 4 10 -3 6 -11 10 -16 10 -6
0 -7 -4 -4 -10z"/>
<path d="M2230 7396 c0 -9 5 -16 10 -16 6 0 10 4 10 9 0 6 -4 13 -10 16 -5 3
-10 -1 -10 -9z"/>
<path d="M4690 7401 c0 -5 7 -14 15 -21 19 -16 19 -30 1 -30 -22 0 -27 -16
-15 -44 15 -31 44 -36 36 -6 -3 11 -2 20 3 20 13 0 5 65 -10 77 -18 15 -30 16
-30 4z"/>
<path d="M2320 7385 c0 -8 5 -15 10 -15 6 0 10 7 10 15 0 8 -4 15 -10 15 -5 0
-10 -7 -10 -15z"/>
<path d="M4310 7390 c0 -5 9 -10 21 -10 11 0 17 5 14 10 -3 6 -13 10 -21 10
-8 0 -14 -4 -14 -10z"/>
<path d="M2267 7373 c-14 -13 -6 -33 13 -33 11 0 20 4 20 9 0 13 -26 32 -33
24z"/>
<path d="M4236 7365 c-6 -16 -4 -17 74 -19 48 -1 91 16 76 31 -4 4 -11 2 -15
-6 -6 -10 -17 -10 -47 -2 -54 15 -81 14 -88 -4z"/>
<path d="M4430 7370 c0 -5 4 -10 9 -10 6 0 13 5 16 10 3 6 -1 10 -9 10 -9 0
-16 -4 -16 -10z"/>
<path d="M4505 7350 c22 -11 47 -20 56 -20 9 0 22 -7 29 -15 10 -12 10 -15 -3
-15 -13 0 -11 -6 8 -26 19 -20 31 -25 62 -22 l38 3 -30 17 c-21 12 -25 17 -12
18 23 0 22 20 -2 20 -11 0 -41 11 -68 25 -26 14 -64 27 -83 30 l-35 5 40 -20z"/>
<path d="M2220 7350 c0 -5 5 -10 10 -10 6 0 10 5 10 10 0 6 -4 10 -10 10 -5 0
-10 -4 -10 -10z"/>
<path d="M2307 7331 c-5 -22 1 -33 14 -25 12 7 12 44 0 44 -5 0 -11 -9 -14
-19z"/>
<path d="M4298 7332 c-10 -2 -18 -8 -18 -13 0 -5 -7 -9 -15 -9 -8 0 -15 -4
-15 -10 0 -16 26 -12 51 9 26 21 24 30 -3 23z"/>
<path d="M4355 7330 c-18 -7 -18 -9 -3 -15 25 -10 121 -2 125 11 4 13 -92 16
-122 4z"/>
<path d="M2180 7320 c0 -5 5 -10 10 -10 6 0 10 5 10 10 0 6 -4 10 -10 10 -5 0
-10 -4 -10 -10z"/>
<path d="M2230 7311 c0 -6 5 -13 10 -16 6 -3 10 1 10 9 0 9 -4 16 -10 16 -5 0
-10 -4 -10 -9z"/>
<path d="M2271 7304 c0 -11 3 -14 6 -6 3 7 2 16 -1 19 -3 4 -6 -2 -5 -13z"/>
<path d="M4536 7304 c-9 -24 -7 -28 9 -14 17 14 20 30 6 30 -5 0 -12 -7 -15
-16z"/>
<path d="M4312 7294 c-14 -10 -5 -13 53 -19 39 -4 84 -13 102 -21 39 -18 76
-18 71 -1 -9 27 -198 62 -226 41z"/>
<path d="M4760 7299 c0 -5 5 -7 10 -4 6 3 10 8 10 11 0 2 -4 4 -10 4 -5 0 -10
-5 -10 -11z"/>
<path d="M2335 7290 c-3 -6 1 -13 10 -16 19 -8 30 0 20 15 -8 14 -22 14 -30 1z"/>
<path d="M2290 7280 c0 -5 5 -10 10 -10 6 0 10 5 10 10 0 6 -4 10 -10 10 -5 0
-10 -4 -10 -10z"/>
<path d="M2090 7270 c0 -5 5 -10 10 -10 6 0 10 5 10 10 0 6 -4 10 -10 10 -5 0
-10 -4 -10 -10z"/>
<path d="M2155 7270 c-3 -5 -1 -10 4 -10 6 0 11 5 11 10 0 6 -2 10 -4 10 -3 0
-8 -4 -11 -10z"/>
<path d="M4070 7270 c0 -5 7 -10 16 -10 8 0 12 5 9 10 -3 6 -10 10 -16 10 -5
0 -9 -4 -9 -10z"/>
<path d="M2225 7260 c3 -5 11 -10 16 -10 6 0 7 5 4 10 -3 6 -11 10 -16 10 -6
0 -7 -4 -4 -10z"/>
<path d="M4275 7260 c3 -5 8 -10 11 -10 2 0 4 5 4 10 0 6 -5 10 -11 10 -5 0
-7 -4 -4 -10z"/>
<path d="M2271 7244 c0 -11 3 -14 6 -6 3 7 2 16 -1 19 -3 4 -6 -2 -5 -13z"/>
<path d="M2340 7235 c0 -8 7 -15 15 -15 8 0 15 7 15 15 0 8 -7 15 -15 15 -8 0
-15 -7 -15 -15z"/>
<path d="M2390 7235 c0 -8 5 -15 10 -15 6 0 10 7 10 15 0 8 -4 15 -10 15 -5 0
-10 -7 -10 -15z"/>
<path d="M4040 7239 c0 -22 33 -38 54 -27 19 10 19 11 1 24 -23 17 -55 18 -55
3z"/>
<path d="M4333 7228 c-32 -19 -43 -38 -23 -38 6 0 10 5 10 10 0 6 10 10 23 10
12 0 28 9 35 20 16 26 -1 26 -45 -2z"/>
<path d="M4420 7244 c0 -25 65 -57 101 -49 21 5 36 1 55 -14 29 -23 44 -27 44
-11 0 5 -12 13 -26 16 -16 4 -23 12 -20 20 4 10 -4 14 -30 14 -19 0 -51 7 -71
15 -38 16 -53 19 -53 9z"/>
<path d="M4590 7240 c0 -5 5 -10 11 -10 5 0 7 5 4 10 -3 6 -8 10 -11 10 -2 0
-4 -4 -4 -10z"/>
<path d="M4257 7233 c-13 -13 -7 -32 8 -27 8 4 15 12 15 20 0 15 -12 19 -23 7z"/>
<path d="M4685 7210 c3 -5 8 -10 11 -10 2 0 4 5 4 10 0 6 -5 10 -11 10 -5 0
-7 -4 -4 -10z"/>
<path d="M2445 7200 c3 -5 8 -10 11 -10 2 0 4 5 4 10 0 6 -5 10 -11 10 -5 0
-7 -4 -4 -10z"/>
<path d="M4608 7203 c7 -3 16 -2 19 1 4 3 -2 6 -13 5 -11 0 -14 -3 -6 -6z"/>
<path d="M4710 7199 c0 -5 5 -7 10 -4 6 3 10 8 10 11 0 2 -4 4 -10 4 -5 0 -10
-5 -10 -11z"/>
<path d="M2400 7190 c0 -5 5 -10 11 -10 5 0 7 5 4 10 -3 6 -8 10 -11 10 -2 0
-4 -4 -4 -10z"/>
<path d="M4024 7189 c-3 -6 -17 -8 -30 -5 -24 6 -35 -9 -11 -17 9 -3 9 -7 -1
-20 -8 -9 -10 -22 -6 -28 5 -9 11 -7 20 6 7 9 27 20 45 24 34 7 53 31 25 31
-9 0 -16 5 -16 10 0 13 -17 13 -26 -1z"/>
<path d="M3883 7175 c-8 -22 -1 -26 35 -19 18 4 32 13 32 20 0 20 -59 18 -67
-1z"/>
<path d="M4240 7170 c0 -5 7 -10 15 -10 8 0 15 5 15 10 0 6 -7 10 -15 10 -8 0
-15 -4 -15 -10z"/>
<path d="M4510 7172 c0 -4 4 -13 9 -20 9 -15 42 -13 41 3 0 11 -50 27 -50 17z"/>
<path d="M4649 7163 c9 -16 71 -29 71 -14 0 8 -50 31 -67 31 -10 0 -11 -5 -4
-17z"/>
<path d="M2340 7150 c0 -5 5 -10 10 -10 6 0 10 5 10 10 0 6 -4 10 -10 10 -5 0
-10 -4 -10 -10z"/>
<path d="M2468 7135 c-3 -14 -2 -25 2 -25 11 0 20 39 10 45 -4 3 -10 -6 -12
-20z"/>
<path d="M3927 7144 c-8 -8 1 -24 13 -24 4 0 10 7 14 15 5 15 -14 21 -27 9z"/>
<path d="M4592 7143 c-26 -5 -20 -23 9 -23 10 0 19 7 19 15 0 8 -1 14 -2 14
-2 -1 -13 -4 -26 -6z"/>
<path d="M4064 7129 c-3 -6 -1 -16 5 -22 8 -8 11 -5 11 11 0 24 -5 28 -16 11z"/>
<path d="M4476 7131 c-3 -5 1 -11 9 -15 9 -3 15 0 15 9 0 16 -16 20 -24 6z"/>
<path d="M4296 7114 c-5 -14 -4 -15 9 -4 17 14 19 20 6 20 -5 0 -12 -7 -15
-16z"/>
<path d="M4435 7120 c-3 -5 1 -10 9 -10 9 0 16 5 16 10 0 6 -4 10 -9 10 -6 0
-13 -4 -16 -10z"/>
<path d="M2404 7104 c3 -9 6 -18 6 -20 0 -3 5 -2 10 1 16 10 12 35 -6 35 -11
0 -14 -5 -10 -16z"/>
<path d="M4027 7113 c-4 -3 -7 -11 -7 -17 0 -6 5 -5 12 2 6 6 9 14 7 17 -3 3
-9 2 -12 -2z"/>
<path d="M4340 7110 c0 -5 7 -10 15 -10 8 0 15 5 15 10 0 6 -7 10 -15 10 -8 0
-15 -4 -15 -10z"/>
<path d="M4515 7110 c-3 -6 1 -13 10 -16 19 -8 30 0 20 15 -8 14 -22 14 -30 1z"/>
<path d="M4673 7113 c-20 -7 -15 -23 7 -23 11 0 20 4 20 9 0 13 -12 19 -27 14z"/>
<path d="M3830 7098 c0 -7 4 -19 9 -27 11 -17 25 3 17 24 -7 18 -26 20 -26 3z"/>
<path d="M2070 7091 c0 -5 7 -14 15 -21 18 -15 42 1 31 19 -8 13 -46 15 -46 2z"/>
<path d="M3193 7071 c-25 -21 -29 -36 -13 -46 15 -9 60 25 60 46 0 24 -19 24
-47 0z"/>
<path d="M4385 7080 c3 -5 15 -10 25 -10 10 0 22 5 25 10 4 6 -7 10 -25 10
-18 0 -29 -4 -25 -10z"/>
<path d="M4488 7068 c9 -9 15 -9 24 0 9 9 7 12 -12 12 -19 0 -21 -3 -12 -12z"/>
<path d="M4564 7066 c-3 -8 -16 -16 -27 -16 -12 0 -31 -1 -42 -2 -11 0 -28 3
-38 7 -13 6 -16 4 -11 -9 8 -21 -17 -50 -57 -66 -33 -14 -38 -30 -10 -30 13 0
18 -5 15 -17 -3 -11 3 -23 14 -30 16 -10 27 -8 58 9 22 12 49 21 62 20 18 -1
24 5 29 28 3 17 9 30 14 30 7 0 79 66 79 73 0 2 -8 3 -17 4 -10 1 -28 4 -40 8
-16 5 -25 3 -29 -9z"/>
<path d="M2457 7049 c-10 -35 -9 -38 13 -32 24 6 25 13 7 38 -13 17 -14 17
-20 -6z"/>
<path d="M2680 7055 c0 -8 6 -15 14 -15 8 0 16 7 20 15 4 10 -1 15 -14 15 -11
0 -20 -7 -20 -15z"/>
<path d="M3005 7060 c-3 -5 -15 -10 -26 -10 -11 0 -17 -4 -14 -10 3 -5 10 -10
14 -10 14 0 57 39 44 40 -6 0 -15 -4 -18 -10z"/>
<path d="M4310 7060 c0 -5 5 -10 10 -10 6 0 10 5 10 10 0 6 -4 10 -10 10 -5 0
-10 -4 -10 -10z"/>
<path d="M4350 7055 c-9 -11 -10 -19 -3 -26 7 -7 14 -5 23 6 9 11 10 19 3 26
-7 7 -14 5 -23 -6z"/>
<path d="M3476 7018 c-4 -10 -16 -20 -27 -23 -26 -9 -44 -42 -22 -42 22 0 65
46 60 65 -4 16 -5 16 -11 0z"/>
<path d="M4670 7015 c0 -8 5 -15 10 -15 6 0 10 7 10 15 0 8 -4 15 -10 15 -5 0
-10 -7 -10 -15z"/>
<path d="M1940 7011 c0 -6 5 -13 10 -16 6 -3 10 1 10 9 0 9 -4 16 -10 16 -5 0
-10 -4 -10 -9z"/>
<path d="M1820 6995 c0 -8 5 -15 10 -15 6 0 10 7 10 15 0 8 -4 15 -10 15 -5 0
-10 -7 -10 -15z"/>
<path d="M1996 6992 c-8 -13 5 -53 15 -46 12 7 12 41 0 49 -5 3 -12 2 -15 -3z"/>
<path d="M2056 6964 c-18 -23 -26 -43 -23 -56 6 -22 -13 -59 -47 -93 -19 -19
-19 -19 12 -32 42 -17 41 -35 -1 -32 -24 2 -43 -4 -66 -22 -30 -24 -31 -26
-14 -41 15 -14 25 -15 61 -5 41 11 57 27 27 27 -8 0 -15 4 -15 9 0 5 7 11 15
15 9 3 15 0 15 -8 0 -19 33 -46 58 -46 12 0 23 8 27 20 3 11 13 20 21 20 8 0
17 13 20 29 6 29 7 30 30 14 18 -11 23 -21 19 -37 -5 -17 -4 -18 4 -6 7 10 11
11 11 3 0 -7 8 -13 18 -13 29 0 16 55 -19 84 -16 14 -29 30 -29 37 0 10 3 10
12 1 18 -18 38 -14 38 7 0 19 -62 81 -80 81 -6 0 -10 7 -10 16 0 14 2 14 16 3
14 -12 16 -11 12 6 -4 20 -19 23 -50 10 -14 -5 -18 -2 -18 13 0 34 -14 33 -44
-4z"/>
<path d="M3497 6993 c-14 -13 -6 -23 17 -23 13 0 29 7 36 15 11 13 8 15 -17
15 -16 0 -33 -3 -36 -7z"/>
<path d="M3735 6990 c-3 -5 -1 -10 4 -10 6 0 11 5 11 10 0 6 -2 10 -4 10 -3 0
-8 -4 -11 -10z"/>
<path d="M1910 6962 c0 -4 5 -13 11 -19 15 -15 5 -29 -35 -48 -25 -12 -33 -21
-29 -36 4 -13 0 -19 -10 -19 -22 0 -32 -20 -16 -31 8 -5 24 -9 35 -9 12 0 24
-7 28 -15 7 -20 56 -20 56 1 0 28 -20 54 -42 54 -17 0 -18 3 -9 14 11 13 17
12 44 -4 30 -18 33 -18 34 -2 1 9 4 28 5 42 2 19 -1 25 -15 23 -13 -1 -17 4
-13 14 4 9 1 22 -5 29 -12 15 -39 19 -39 6z"/>
<path d="M4647 6964 c-9 -10 -9 -44 1 -44 4 0 14 5 22 10 13 8 13 11 -1 25 -8
8 -18 12 -22 9z"/>
<path d="M4570 6935 c0 -8 7 -15 15 -15 9 0 12 6 9 15 -4 8 -10 15 -15 15 -5
0 -9 -7 -9 -15z"/>
<path d="M1783 6909 c-9 -9 -6 -17 12 -30 29 -24 45 -24 45 -1 0 35 -35 53
-57 31z"/>
<path d="M4510 6900 c8 -5 11 -10 6 -10 -5 0 -1 -9 9 -20 21 -23 45 -26 45 -6
0 22 -28 46 -53 46 -18 0 -19 -2 -7 -10z"/>
<path d="M4585 6880 c-3 -5 1 -10 9 -10 8 0 18 5 21 10 3 6 -1 10 -9 10 -8 0
-18 -4 -21 -10z"/>
<path d="M2240 6842 c0 -12 19 -26 26 -19 2 2 -2 10 -11 17 -9 8 -15 8 -15 2z"/>
<path d="M2305 6820 c-7 -12 2 -30 16 -30 5 0 9 9 9 20 0 21 -15 27 -25 10z"/>
<path d="M2362 6794 c2 -11 11 -20 22 -22 13 -3 17 1 14 14 -2 11 -11 20 -22
22 -13 3 -17 -1 -14 -14z"/>
<path d="M4530 6800 c0 -5 5 -10 10 -10 6 0 10 5 10 10 0 6 -4 10 -10 10 -5 0
-10 -4 -10 -10z"/>
<path d="M1860 6730 c0 -5 5 -10 11 -10 5 0 7 5 4 10 -3 6 -8 10 -11 10 -2 0
-4 -4 -4 -10z"/>
<path d="M2330 6710 c0 -5 5 -10 10 -10 6 0 10 5 10 10 0 6 -4 10 -10 10 -5 0
-10 -4 -10 -10z"/>
<path d="M2110 6635 c0 -9 6 -12 15 -9 8 4 12 10 9 15 -8 14 -24 10 -24 -6z"/>
<path d="M2185 6640 c4 -6 11 -8 16 -5 14 9 11 15 -7 15 -8 0 -12 -5 -9 -10z"/>
<path d="M3447 24 c-8 -8 1 -24 13 -24 4 0 10 7 14 15 5 15 -14 21 -27 9z"/>
</g>
</svg>
